<svg width="640" height="107" viewBox="0 0 640 107" fill="none" xmlns="http://www.w3.org/2000/svg">
<rect width="640" height="106.667" fill="white"/>
<g clip-path="url(#clip0_30_246)">
<path d="M107.882 48.0268C107.882 48.7955 107.266 49.4148 106.5 49.4148C105.734 49.4148 105.117 48.7955 105.117 48.0268C105.117 47.258 105.713 46.6387 106.5 46.6387C107.287 46.6601 107.882 47.2794 107.882 48.0268ZM102.182 50.8242C102.182 50.9524 102.182 51.1659 102.182 51.1659C102.182 51.1659 101.523 50.3117 100.119 50.3117C97.8005 50.3117 95.9926 52.0842 95.9926 54.54C95.9926 56.9744 97.7792 58.7682 100.119 58.7682C101.544 58.7682 102.182 57.8926 102.182 57.8926V58.2557C102.182 58.4265 102.31 58.5546 102.48 58.5546H104.203V50.5253C104.203 50.5253 102.629 50.5253 102.48 50.5253C102.31 50.5253 102.182 50.6748 102.182 50.8242ZM102.182 55.9707C101.863 56.4405 101.225 56.8463 100.459 56.8463C99.098 56.8463 98.0558 55.9921 98.0558 54.54C98.0558 53.0878 99.098 52.2336 100.459 52.2336C101.204 52.2336 101.884 52.6607 102.182 53.1092V55.9707ZM105.479 50.5253H107.521V58.5546H105.479V50.5253ZM135.98 50.3117C134.576 50.3117 133.917 51.1659 133.917 51.1659V46.6601H131.875V58.5546C131.875 58.5546 133.449 58.5546 133.598 58.5546C133.768 58.5546 133.896 58.4052 133.896 58.2557V57.8926C133.896 57.8926 134.555 58.7682 135.959 58.7682C138.277 58.7682 140.085 56.9744 140.085 54.54C140.085 52.1055 138.277 50.3117 135.98 50.3117ZM135.64 56.8249C134.853 56.8249 134.236 56.4192 133.917 55.9494V53.0878C134.236 52.6607 134.917 52.2123 135.64 52.2123C137.001 52.2123 138.043 53.0665 138.043 54.5186C138.043 55.9707 137.001 56.8249 135.64 56.8249ZM130.811 53.7925V58.576H128.77V54.0274C128.77 52.7035 128.344 52.1696 127.196 52.1696C126.579 52.1696 125.941 52.4899 125.537 52.9597V58.5546H123.495V50.5253H125.111C125.281 50.5253 125.409 50.6748 125.409 50.8242V51.1659C126.004 50.5466 126.791 50.3117 127.578 50.3117C128.472 50.3117 129.216 50.568 129.812 51.0805C130.535 51.6784 130.811 52.4472 130.811 53.7925ZM118.539 50.3117C117.135 50.3117 116.476 51.1659 116.476 51.1659V46.6601H114.434V58.5546C114.434 58.5546 116.008 58.5546 116.156 58.5546C116.327 58.5546 116.454 58.4052 116.454 58.2557V57.8926C116.454 57.8926 117.114 58.7682 118.517 58.7682C120.836 58.7682 122.644 56.9744 122.644 54.54C122.665 52.1055 120.857 50.3117 118.539 50.3117ZM118.198 56.8249C117.411 56.8249 116.795 56.4192 116.476 55.9494V53.0878C116.795 52.6607 117.475 52.2123 118.198 52.2123C119.56 52.2123 120.602 53.0665 120.602 54.5186C120.602 55.9707 119.56 56.8249 118.198 56.8249ZM112.668 50.3117C113.285 50.3117 113.604 50.4185 113.604 50.4185V52.3191C113.604 52.3191 111.902 51.7425 110.839 52.9597V58.576H108.797V50.5253C108.797 50.5253 110.371 50.5253 110.52 50.5253C110.69 50.5253 110.818 50.6748 110.818 50.8242V51.1659C111.201 50.7175 112.03 50.3117 112.668 50.3117ZM91.4621 57.8286C91.3557 57.5723 91.2494 57.2947 91.143 57.0598C90.9729 56.6754 90.8027 56.3124 90.6538 55.9707L90.6325 55.9494C89.1649 52.7462 87.5909 49.5002 85.9319 46.297L85.8681 46.1689C85.6979 45.8486 85.5278 45.5069 85.3576 45.1652C85.1449 44.7809 84.9322 44.3751 84.5919 43.9907C83.9112 43.1366 82.9328 42.6667 81.8906 42.6667C80.8271 42.6667 79.8699 43.1366 79.168 43.948C78.849 44.3324 78.615 44.7382 78.4023 45.1225C78.2322 45.4642 78.062 45.8059 77.8918 46.1262L77.828 46.2543C76.1902 49.4575 74.595 52.7035 73.1274 55.9067L73.1061 55.9494C72.9572 56.291 72.7871 56.6541 72.6169 57.0385C72.5105 57.2734 72.4042 57.5296 72.2978 57.8072C72.0213 58.5973 71.9363 59.3448 72.0426 60.1135C72.2766 61.7151 73.3401 63.0605 74.8077 63.6584C75.3607 63.8933 75.935 64.0001 76.5306 64.0001C76.7007 64.0001 76.9134 63.9787 77.0836 63.9574C77.7855 63.872 78.5087 63.6371 79.2106 63.2313C80.0826 62.7402 80.9122 62.0355 81.8481 61.0104C82.7839 62.0355 83.6347 62.7402 84.4855 63.2313C85.1874 63.6371 85.9106 63.872 86.6125 63.9574C86.7827 63.9787 86.9954 64.0001 87.1655 64.0001C87.7611 64.0001 88.3567 63.8933 88.8884 63.6584C90.3773 63.0605 91.4195 61.6938 91.6535 60.1135C91.8237 59.3661 91.7386 58.6187 91.4621 57.8286ZM81.8693 58.939C80.7207 57.4869 79.9763 56.1202 79.7211 54.967C79.6147 54.4759 79.5934 54.0488 79.6572 53.6644C79.6998 53.3227 79.8274 53.0238 79.9976 52.7675C80.4017 52.1909 81.0823 51.8279 81.8693 51.8279C82.6563 51.8279 83.3582 52.1696 83.7411 52.7675C83.9112 53.0238 84.0389 53.3227 84.0814 53.6644C84.1452 54.0488 84.1239 54.4972 84.0176 54.967C83.7623 56.0988 83.0179 57.4655 81.8693 58.939ZM90.356 59.9427C90.2071 61.0531 89.4627 62.0141 88.4205 62.4412C87.91 62.6547 87.357 62.7188 86.8039 62.6547C86.2722 62.5907 85.7405 62.4198 85.1874 62.0995C84.4217 61.6724 83.656 61.0104 82.7627 60.0281C84.1665 58.2984 85.0173 56.7181 85.3363 55.3087C85.4852 54.6467 85.5065 54.0488 85.4427 53.4936C85.3576 52.9597 85.1662 52.4686 84.8684 52.0415C84.209 51.0805 83.103 50.5253 81.8693 50.5253C80.6357 50.5253 79.5296 51.1019 78.8703 52.0415C78.5725 52.4686 78.381 52.9597 78.296 53.4936C78.2109 54.0488 78.2322 54.6681 78.4023 55.3087C78.7214 56.7181 79.5934 58.3197 80.976 60.0495C80.1039 61.0318 79.3169 61.6938 78.5512 62.1209C77.9982 62.4412 77.4664 62.612 76.9347 62.6761C76.3604 62.7402 75.8074 62.6547 75.3182 62.4625C74.2759 62.0355 73.5315 61.0745 73.3826 59.964C73.3188 59.4302 73.3613 58.8963 73.574 58.2984C73.6378 58.0848 73.7442 57.8713 73.8505 57.615C73.9994 57.2734 74.1696 56.9103 74.3398 56.5473L74.361 56.5046C75.8287 53.3227 77.4026 50.0768 79.0404 46.9163L79.1042 46.7882C79.2744 46.4679 79.4445 46.1262 79.6147 45.8059C79.7849 45.4642 79.9763 45.1439 80.2103 44.8663C80.6569 44.3538 81.2525 44.0762 81.9119 44.0762C82.5712 44.0762 83.1668 44.3538 83.6135 44.8663C83.8474 45.1439 84.0389 45.4642 84.209 45.8059C84.3792 46.1262 84.5493 46.4679 84.7195 46.7882L84.7833 46.9163C86.3998 50.0982 87.9738 53.3441 89.4414 56.5259V56.5473C89.6116 56.889 89.7605 57.2734 89.9306 57.615C90.037 57.8713 90.1433 58.0848 90.2071 58.2984C90.3773 58.8536 90.4411 59.3875 90.356 59.9427Z" fill="#999999"/>
</g>
<g clip-path="url(#clip1_30_246)">
<path d="M234.786 55.7044L236.59 56.9068C236.004 57.7691 234.604 59.2483 232.183 59.2483C229.177 59.2483 226.939 56.9227 226.939 53.9641C226.939 50.8158 229.201 48.6799 231.93 48.6799C234.675 48.6799 236.02 50.8632 236.455 52.0419L236.692 52.6431L229.62 55.57C230.158 56.63 230.997 57.1679 232.183 57.1679C233.37 57.1679 234.193 56.5825 234.786 55.7044ZM229.241 53.798L233.963 51.8362C233.702 51.1796 232.927 50.7129 232.001 50.7129C230.823 50.7129 229.185 51.7571 229.241 53.798Z" fill="#999999"/>
<path d="M223.529 43.2928H225.808V58.7658H223.529V43.2928Z" fill="#999999"/>
<path d="M219.938 49.0913H222.137V58.4889C222.137 62.3888 219.835 63.9946 217.114 63.9946C214.551 63.9946 213.008 62.2701 212.431 60.87L214.448 60.0315C214.812 60.8937 215.69 61.9142 217.114 61.9142C218.862 61.9142 219.938 60.8304 219.938 58.8053V58.0459H219.859C219.337 58.6788 218.34 59.2483 217.074 59.2483C214.432 59.2483 212.012 56.9464 212.012 53.9799C212.012 50.9977 214.432 48.672 217.074 48.672C218.332 48.672 219.337 49.2336 219.859 49.8507H219.938V49.0913ZM220.096 53.9799C220.096 52.1131 218.854 50.7525 217.272 50.7525C215.674 50.7525 214.329 52.1131 214.329 53.9799C214.329 55.8231 215.674 57.16 217.272 57.16C218.854 57.1679 220.096 55.8231 220.096 53.9799Z" fill="#999999"/>
<path d="M199.505 53.9404C199.505 56.986 197.132 59.2246 194.221 59.2246C191.31 59.2246 188.937 56.9781 188.937 53.9404C188.937 50.8791 191.31 48.6483 194.221 48.6483C197.132 48.6483 199.505 50.8791 199.505 53.9404ZM197.195 53.9404C197.195 52.0419 195.819 50.7367 194.221 50.7367C192.623 50.7367 191.247 52.0419 191.247 53.9404C191.247 55.8231 192.623 57.1442 194.221 57.1442C195.819 57.1442 197.195 55.8231 197.195 53.9404Z" fill="#999999"/>
<path d="M211.047 53.9641C211.047 57.0097 208.674 59.2483 205.762 59.2483C202.851 59.2483 200.478 57.0097 200.478 53.9641C200.478 50.9028 202.851 48.6799 205.762 48.6799C208.674 48.6799 211.047 50.8949 211.047 53.9641ZM208.729 53.9641C208.729 52.0656 207.352 50.7604 205.755 50.7604C204.157 50.7604 202.78 52.0656 202.78 53.9641C202.78 55.8468 204.157 57.1679 205.755 57.1679C207.36 57.1679 208.729 55.8389 208.729 53.9641Z" fill="#999999"/>
<path d="M180.251 56.9306C176.937 56.9306 174.342 54.2568 174.342 50.9423C174.342 47.6278 176.937 44.9541 180.251 44.9541C182.039 44.9541 183.344 45.6581 184.309 46.5599L185.899 44.9699C184.554 43.6805 182.759 42.6996 180.251 42.6996C175.71 42.6996 171.89 46.4017 171.89 50.9423C171.89 55.4829 175.71 59.185 180.251 59.185C182.703 59.185 184.554 58.3782 186.002 56.8752C187.489 55.388 187.948 53.2996 187.948 51.6068C187.948 51.0768 187.885 50.531 187.813 50.1275H180.251V52.3267H185.638C185.48 53.7031 185.045 54.6444 184.404 55.2852C183.629 56.0683 182.403 56.9306 180.251 56.9306Z" fill="#999999"/>
</g>
<g clip-path="url(#clip2_30_246)">
<path d="M295.313 59.3806L296.355 56.9617C297.48 57.8016 298.975 58.2384 300.454 58.2384C301.545 58.2384 302.234 57.8184 302.234 57.1801C302.217 55.3995 295.7 56.7938 295.649 52.3255C295.633 50.0578 297.648 48.3108 300.504 48.3108C302.201 48.3108 303.897 48.7308 305.107 49.6882L304.132 52.1575C303.024 51.452 301.646 50.9481 300.336 50.9481C299.446 50.9481 298.858 51.368 298.858 51.9056C298.875 53.6526 305.443 52.6951 305.51 56.9617C305.51 59.2798 303.544 60.9092 300.722 60.9092C298.656 60.9092 296.758 60.4221 295.313 59.3806ZM335.276 56.0882C334.755 56.9953 333.781 57.6169 332.655 57.6169C330.992 57.6169 329.648 56.273 329.648 54.61C329.648 52.947 330.992 51.6032 332.655 51.6032C333.781 51.6032 334.755 52.2247 335.276 53.1318L338.148 51.536C337.073 49.6211 335.007 48.3108 332.655 48.3108C329.178 48.3108 326.356 51.1329 326.356 54.61C326.356 58.0872 329.178 60.9092 332.655 60.9092C335.024 60.9092 337.073 59.6158 338.148 57.684L335.276 56.0882V56.0882ZM306.954 43.0867H310.549V60.6741H306.954V43.0867ZM339.559 43.0867V60.6741H343.154V55.3995L347.421 60.6741H352.023L346.597 54.4085L351.62 48.5628H347.219L343.154 53.4174V43.0867H339.559ZM321.233 56.1218C320.712 56.9785 319.637 57.6169 318.427 57.6169C316.764 57.6169 315.421 56.273 315.421 54.61C315.421 52.947 316.764 51.6032 318.427 51.6032C319.637 51.6032 320.712 52.2751 321.233 53.1486V56.1218ZM321.233 48.5628V49.9906C320.645 48.9995 319.183 48.3108 317.655 48.3108C314.497 48.3108 312.011 51.0993 312.011 54.5932C312.011 58.0872 314.497 60.9092 317.655 60.9092C319.183 60.9092 320.645 60.2205 321.233 59.2295V60.6573H324.827V48.5628H321.233Z" fill="#999999"/>
<path d="M273.09 56.105C273.09 57.3313 272.099 58.3223 270.873 58.3223C269.646 58.3223 268.655 57.3313 268.655 56.105C268.655 54.8788 269.646 53.8877 270.873 53.8877H273.09V56.105ZM274.199 56.105C274.199 54.8788 275.19 53.8877 276.416 53.8877C277.642 53.8877 278.633 54.8788 278.633 56.105V61.6483C278.633 62.8746 277.642 63.8656 276.416 63.8656C275.19 63.8656 274.199 62.8746 274.199 61.6483V56.105Z" fill="#999999"/>
<path d="M276.416 47.2022C275.19 47.2022 274.199 46.2111 274.199 44.9849C274.199 43.7587 275.19 42.7676 276.416 42.7676C277.642 42.7676 278.633 43.7587 278.633 44.9849V47.2022H276.416ZM276.416 48.3277C277.642 48.3277 278.633 49.3188 278.633 50.545C278.633 51.7713 277.642 52.7623 276.416 52.7623H270.856C269.63 52.7623 268.639 51.7713 268.639 50.545C268.639 49.3188 269.63 48.3277 270.856 48.3277H276.416Z" fill="#999999"/>
<path d="M285.302 50.545C285.302 49.3188 286.293 48.3277 287.519 48.3277C288.746 48.3277 289.737 49.3188 289.737 50.545C289.737 51.7713 288.746 52.7623 287.519 52.7623H285.302V50.545ZM284.193 50.545C284.193 51.7713 283.202 52.7623 281.976 52.7623C280.75 52.7623 279.759 51.7713 279.759 50.545V44.9849C279.759 43.7587 280.75 42.7676 281.976 42.7676C283.202 42.7676 284.193 43.7587 284.193 44.9849V50.545V50.545Z" fill="#999999"/>
<path d="M281.976 59.431C283.202 59.431 284.193 60.4221 284.193 61.6483C284.193 62.8746 283.202 63.8656 281.976 63.8656C280.75 63.8656 279.759 62.8746 279.759 61.6483V59.431H281.976ZM281.976 58.3223C280.75 58.3223 279.759 57.3313 279.759 56.105C279.759 54.8788 280.75 53.8877 281.976 53.8877H287.536C288.762 53.8877 289.754 54.8788 289.754 56.105C289.754 57.3313 288.762 58.3223 287.536 58.3223H281.976Z" fill="#999999"/>
</g>
<g clip-path="url(#clip3_30_246)">
<path d="M394.729 62.625C393.542 62.8335 392.335 62.896 391.086 63.0625L387.277 51.896V63.5418C386.091 63.6668 385.008 63.8334 383.885 64.0001V42.6667H387.048L391.378 54.7711V42.6667H394.729V62.625ZM401.285 50.4793C402.576 50.4793 404.553 50.4167 405.739 50.4167V53.75C404.261 53.75 402.534 53.75 401.285 53.8125V58.7709C403.242 58.646 405.198 58.4792 407.175 58.4166V61.6248L397.955 62.3541V42.6667H407.175V46.0001H401.285V50.4793V50.4793ZM419.56 46.0002H416.104V61.3335C414.981 61.3335 413.857 61.3335 412.774 61.375V46.0002H409.319V42.6667H419.56L419.56 46.0002V46.0002ZM424.971 50.2501H429.529V53.5834H424.971V61.146H421.703V42.6667H431.007V46.0001H424.971V50.2501V50.2501ZM436.419 58.2292C438.313 58.2708 440.228 58.4169 442.08 58.5209V61.8126C439.104 61.6249 436.127 61.4377 433.089 61.375V42.6667H436.419V58.2292ZM444.89 62.0418C445.952 62.1043 447.076 62.1669 448.158 62.2917V42.6667H444.89V62.0418V62.0418ZM462.749 42.6667L458.523 52.8126L462.749 64.0001C461.5 63.8334 460.251 63.6042 459.002 63.3959L456.608 57.2293L454.173 62.896C452.966 62.6875 451.8 62.625 450.593 62.4583L454.881 52.6875L451.01 42.6667H454.589L456.775 48.2709L459.106 42.6667H462.749V42.6667Z" fill="#999999"/>
</g>
<g clip-path="url(#clip4_30_246)">
<path fill-rule="evenodd" clip-rule="evenodd" d="M538.428 59.35C534.309 62.3822 528.34 64 523.2 64C515.993 64 509.505 61.3376 504.596 56.9095C504.211 56.5612 504.556 56.0867 505.019 56.3579C510.316 59.4363 516.866 61.2883 523.632 61.2883C528.195 61.2883 533.214 60.3453 537.83 58.3886C538.527 58.0928 539.11 58.8446 538.428 59.35" fill="#999999"/>
<path fill-rule="evenodd" clip-rule="evenodd" d="M540.14 57.3933C539.616 56.7215 536.66 57.0759 535.333 57.2331C534.929 57.2824 534.868 56.9311 535.232 56.6784C537.586 55.0236 541.448 55.5013 541.899 56.0559C542.349 56.6137 541.781 60.481 539.569 62.3268C539.23 62.6103 538.906 62.4593 539.057 62.0834C539.554 60.8446 540.668 58.0682 540.14 57.3933" fill="#999999"/>
<path fill-rule="evenodd" clip-rule="evenodd" d="M535.426 44.9964V43.3878C535.426 43.1444 535.611 42.9811 535.833 42.9811H543.043C543.275 42.9811 543.46 43.1475 543.46 43.3878V44.7653C543.457 44.9964 543.262 45.2984 542.917 45.776L539.181 51.1039C540.569 51.0701 542.035 51.2765 543.293 51.9853C543.577 52.1455 543.654 52.3797 543.676 52.6108V54.3272C543.676 54.5614 543.417 54.8357 543.145 54.6939C540.927 53.5322 537.981 53.4058 535.528 54.7062C535.278 54.8418 535.016 54.5707 535.016 54.3365V52.7063C535.016 52.4444 535.019 51.9976 535.281 51.6001L539.61 45.4001H535.843C535.611 45.4001 535.426 45.2367 535.426 44.9964" fill="#999999"/>
<path fill-rule="evenodd" clip-rule="evenodd" d="M509.125 55.0328H506.932C506.722 55.0174 506.555 54.8602 506.54 54.6599V43.4155C506.54 43.1905 506.728 43.0118 506.963 43.0118H509.008C509.221 43.0211 509.391 43.1844 509.406 43.3878V44.8576H509.446C509.98 43.4371 510.983 42.7745 512.334 42.7745C513.707 42.7745 514.564 43.4371 515.182 44.8576C515.712 43.4371 516.918 42.7745 518.211 42.7745C519.13 42.7745 520.136 43.1536 520.75 44.0041C521.444 44.9501 521.302 46.3244 521.302 47.5293L521.299 54.626C521.299 54.851 521.111 55.0328 520.877 55.0328H518.686C518.467 55.0174 518.291 54.8417 518.291 54.626V48.6664C518.291 48.1918 518.335 47.0085 518.23 46.5586C518.066 45.8037 517.576 45.591 516.94 45.591C516.409 45.591 515.854 45.9454 515.629 46.5124C515.404 47.0794 515.425 48.0285 515.425 48.6664V54.626C515.425 54.851 515.237 55.0328 515.003 55.0328H512.812C512.59 55.0174 512.417 54.8417 512.417 54.626L512.414 48.6664C512.414 47.4122 512.621 45.5664 511.063 45.5664C509.486 45.5664 509.548 47.366 509.548 48.6664V54.626C509.548 54.851 509.36 55.0328 509.125 55.0328" fill="#999999"/>
<path fill-rule="evenodd" clip-rule="evenodd" d="M549.667 42.7745C552.922 42.7745 554.684 45.5664 554.684 49.1163C554.684 52.546 552.737 55.267 549.667 55.267C546.471 55.267 544.731 52.4751 544.731 48.9961C544.731 45.4955 546.493 42.7745 549.667 42.7745V42.7745ZM549.686 45.0703C548.069 45.0703 547.967 47.2705 547.967 48.6417C547.967 50.0161 547.946 52.9497 549.667 52.9497C551.367 52.9497 551.447 50.5831 551.447 49.1409C551.447 48.1918 551.407 47.0578 551.12 46.158C550.873 45.3753 550.383 45.0703 549.686 45.0703" fill="#999999"/>
<path fill-rule="evenodd" clip-rule="evenodd" d="M558.904 55.0328H556.72C556.501 55.0174 556.325 54.8417 556.325 54.626L556.322 43.3785C556.34 43.1721 556.522 43.0118 556.744 43.0118H558.778C558.969 43.0211 559.126 43.1505 559.169 43.3261V45.0456H559.209C559.823 43.5079 560.684 42.7745 562.199 42.7745C563.183 42.7745 564.143 43.1289 564.76 44.0996C565.333 44.9994 565.333 46.5124 565.333 47.6002V54.6784C565.309 54.8756 565.127 55.0328 564.911 55.0328H562.711C562.511 55.0174 562.344 54.8695 562.322 54.6784V48.5709C562.322 47.3413 562.464 45.5417 560.949 45.5417C560.416 45.5417 559.925 45.8992 559.681 46.4415C559.373 47.1287 559.333 47.8128 559.333 48.5709V54.626C559.33 54.851 559.139 55.0328 558.904 55.0328" fill="#999999"/>
<path fill-rule="evenodd" clip-rule="evenodd" d="M529.678 49.6618C529.678 50.5154 529.7 51.2272 529.268 51.9852C528.92 52.6016 528.364 52.9806 527.75 52.9806C526.908 52.9806 526.414 52.3396 526.414 51.3936C526.414 49.5262 528.09 49.1872 529.678 49.1872V49.6618V49.6618ZM531.89 55.002C531.745 55.1315 531.536 55.1407 531.372 55.0544C530.644 54.4505 530.511 54.17 530.113 53.5938C528.91 54.8202 528.056 55.1869 526.498 55.1869C524.65 55.1869 523.215 54.0499 523.215 51.7726C523.215 49.9946 524.178 48.7836 525.554 48.1919C526.744 47.668 528.407 47.5756 529.678 47.4308V47.1473C529.678 46.6265 529.719 46.0102 529.41 45.5603C529.145 45.1566 528.633 44.9902 528.179 44.9902C527.343 44.9902 526.599 45.4185 526.417 46.306C526.38 46.5032 526.235 46.6974 526.035 46.7066L523.909 46.4786C523.73 46.4385 523.53 46.2937 523.582 46.0194C524.07 43.4433 526.402 42.6667 528.488 42.6667C529.555 42.6667 530.95 42.9502 531.792 43.7576C532.859 44.7529 532.757 46.0811 532.757 47.5263V50.9406C532.757 51.9668 533.183 52.4167 533.584 52.9713C533.723 53.1685 533.754 53.4058 533.575 53.5537C533.128 53.9266 532.332 54.6199 531.894 55.0082L531.89 55.002" fill="#999999"/>
<path fill-rule="evenodd" clip-rule="evenodd" d="M500.922 49.6618C500.922 50.5154 500.943 51.2272 500.512 51.9852C500.163 52.6016 499.611 52.9806 498.994 52.9806C498.151 52.9806 497.661 52.3396 497.661 51.3936C497.661 49.5262 499.336 49.1872 500.922 49.1872V49.6618V49.6618ZM503.134 55.002C502.989 55.1315 502.779 55.1407 502.616 55.0544C501.888 54.4505 501.758 54.17 501.357 53.5938C500.154 54.8202 499.302 55.1869 497.741 55.1869C495.896 55.1869 494.458 54.0499 494.458 51.7726C494.458 49.9946 495.424 48.7836 496.797 48.1919C497.988 47.668 499.651 47.5756 500.922 47.4308V47.1473C500.922 46.6265 500.962 46.0102 500.657 45.5603C500.388 45.1566 499.876 44.9902 499.426 44.9902C498.589 44.9902 497.843 45.4185 497.661 46.306C497.624 46.5032 497.479 46.6974 497.281 46.7066L495.153 46.4786C494.974 46.4385 494.776 46.2937 494.826 46.0194C495.316 43.4433 497.645 42.6667 499.731 42.6667C500.798 42.6667 502.193 42.9502 503.035 43.7576C504.103 44.7529 504.001 46.0811 504.001 47.5263V50.9406C504.001 51.9668 504.427 52.4167 504.828 52.9713C504.97 53.1685 505 53.4058 504.821 53.5537C504.374 53.9266 503.578 54.6199 503.14 55.0082L503.134 55.002" fill="#999999"/>
</g>
<defs>
<clipPath id="clip0_30_246">
<rect width="68.0851" height="21.3333" fill="white" transform="translate(72 42.6667)"/>
</clipPath>
<clipPath id="clip1_30_246">
<rect width="65.0159" height="21.3333" fill="white" transform="translate(171.795 42.6667)"/>
</clipPath>
<clipPath id="clip2_30_246">
<rect width="83.6535" height="21.3333" fill="white" transform="translate(268.521 42.6667)"/>
</clipPath>
<clipPath id="clip3_30_246">
<rect width="78.864" height="21.3333" fill="white" transform="translate(383.885 42.6667)"/>
</clipPath>
<clipPath id="clip4_30_246">
<rect width="70.8749" height="21.3333" fill="white" transform="translate(494.458 42.6667)"/>
</clipPath>
</defs>
</svg>
