<svg width="201" height="251" viewBox="0 0 201 251" fill="none" xmlns="http://www.w3.org/2000/svg">
<g clip-path="url(#clip0_30_307)">
<path d="M193.763 0.333252H6.68148C2.9914 0.333252 0 3.32598 0 7.0177V244.315C0 248.007 2.9914 251 6.68148 251H193.763C197.453 251 200.444 248.007 200.444 244.315V7.0177C200.444 3.32598 197.453 0.333252 193.763 0.333252Z" fill="#B8C5D0"/>
<path fill-rule="evenodd" clip-rule="evenodd" d="M13.3629 27.0711H187.081C190.771 27.0711 193.763 30.0639 193.763 33.7555V237.631C193.763 241.323 190.771 244.316 187.081 244.316H13.3629C9.6728 244.316 6.6814 241.323 6.6814 237.631V33.7555C6.6814 30.0639 9.6728 27.0711 13.3629 27.0711ZM10.0221 10.36C11.8672 10.36 13.3629 11.8563 13.3629 13.7022C13.3629 15.5481 11.8672 17.0444 10.0221 17.0444C8.1771 17.0444 6.6814 15.5481 6.6814 13.7022C6.6814 11.8563 8.1771 10.36 10.0221 10.36ZM20.0444 10.36C21.8894 10.36 23.3851 11.8563 23.3851 13.7022C23.3851 15.5481 21.8894 17.0444 20.0444 17.0444C18.1993 17.0444 16.7036 15.5481 16.7036 13.7022C16.7036 11.8563 18.1993 10.36 20.0444 10.36ZM30.0666 10.36C31.9117 10.36 33.4073 11.8563 33.4073 13.7022C33.4073 15.5481 31.9117 17.0444 30.0666 17.0444C28.2215 17.0444 26.7258 15.5481 26.7258 13.7022C26.7258 11.8563 28.2215 10.36 30.0666 10.36Z" fill="white"/>
<path d="M61.8037 47.1244H16.7037C13.0136 47.1244 10.0222 50.1171 10.0222 53.8088V97.2577C10.0222 100.949 13.0136 103.942 16.7037 103.942H61.8037C65.4938 103.942 68.4852 100.949 68.4852 97.2577V53.8088C68.4852 50.1171 65.4938 47.1244 61.8037 47.1244Z" fill="#B8C5D0"/>
<path fill-rule="evenodd" clip-rule="evenodd" d="M40.0888 93.5646C47.4685 93.5646 53.4518 96.9403 53.4518 101.101C53.4518 105.262 47.4685 103.608 40.0888 103.608C32.7091 103.608 26.7258 105.262 26.7258 101.101C26.7258 96.9403 32.7091 93.5646 40.0888 93.5646ZM40.0888 68.8489C46.1955 68.9308 51.0873 73.9354 51.0326 80.045C50.9779 86.1548 45.9972 91.071 39.8902 91.0434C33.783 91.0159 28.8469 86.055 28.8472 79.9451C28.8666 76.982 30.0621 74.1482 32.1704 72.0671C34.2787 69.9861 37.1271 68.8283 40.0888 68.8489Z" fill="#1D242B"/>
<path d="M130.289 50.4667H80.1777C79.2552 50.4667 78.5073 51.2149 78.5073 52.1378V53.8089C78.5073 54.7318 79.2552 55.48 80.1777 55.48H130.289C131.211 55.48 131.959 54.7318 131.959 53.8089V52.1378C131.959 51.2149 131.211 50.4667 130.289 50.4667Z" fill="#1D242B"/>
<path d="M146.993 65.5066H80.1777C79.2552 65.5066 78.5073 66.2548 78.5073 67.1777V68.8488C78.5073 69.7717 79.2552 70.5199 80.1777 70.5199H146.993C147.915 70.5199 148.663 69.7717 148.663 68.8488V67.1777C148.663 66.2548 147.915 65.5066 146.993 65.5066Z" fill="#B8C5D0"/>
<path d="M180.4 75.5332H80.1777C79.2552 75.5332 78.5073 76.2814 78.5073 77.2043V78.8754C78.5073 79.7983 79.2552 80.5465 80.1777 80.5465H180.4C181.322 80.5465 182.07 79.7983 182.07 78.8754V77.2043C182.07 76.2814 181.322 75.5332 180.4 75.5332Z" fill="#B8C5D0"/>
<path d="M182.07 85.5599H80.1777C79.2552 85.5599 78.5073 86.3081 78.5073 87.231V88.9022C78.5073 89.8251 79.2552 90.5733 80.1777 90.5733H182.07C182.993 90.5733 183.741 89.8251 183.741 88.9022V87.231C183.741 86.3081 182.993 85.5599 182.07 85.5599Z" fill="#B8C5D0"/>
<path d="M153.674 95.5867H80.1777C79.2552 95.5867 78.5073 96.3349 78.5073 97.2578V98.9289C78.5073 99.8518 79.2552 100.6 80.1777 100.6H153.674C154.597 100.6 155.344 99.8518 155.344 98.9289V97.2578C155.344 96.3349 154.597 95.5867 153.674 95.5867Z" fill="#B8C5D0"/>
<path d="M61.8037 107.284H16.7037C13.0136 107.284 10.0222 110.277 10.0222 113.969V157.418C10.0222 161.109 13.0136 164.102 16.7037 164.102H61.8037C65.4938 164.102 68.4852 161.109 68.4852 157.418V113.969C68.4852 110.277 65.4938 107.284 61.8037 107.284Z" fill="#B8C5D0"/>
<path fill-rule="evenodd" clip-rule="evenodd" d="M40.0888 153.725C47.4685 153.725 53.4518 157.1 53.4518 161.261C53.4518 165.422 47.4685 163.768 40.0888 163.768C32.7091 163.768 26.7258 165.422 26.7258 161.261C26.7258 157.1 32.7091 153.725 40.0888 153.725ZM40.0888 129.009C46.1955 129.091 51.0873 134.095 51.0326 140.205C50.9779 146.315 45.9972 151.231 39.8902 151.203C33.783 151.176 28.8469 146.215 28.8472 140.105C28.8666 137.142 30.0621 134.308 32.1704 132.227C34.2787 130.146 37.1271 128.988 40.0888 129.009Z" fill="#1D242B"/>
<path d="M146.993 110.627H80.1777C79.2552 110.627 78.5073 111.375 78.5073 112.298V113.969C78.5073 114.892 79.2552 115.64 80.1777 115.64H146.993C147.915 115.64 148.663 114.892 148.663 113.969V112.298C148.663 111.375 147.915 110.627 146.993 110.627Z" fill="#1D242B"/>
<path d="M182.07 125.667H80.1777C79.2552 125.667 78.5073 126.415 78.5073 127.338V129.009C78.5073 129.932 79.2552 130.68 80.1777 130.68H182.07C182.993 130.68 183.741 129.932 183.741 129.009V127.338C183.741 126.415 182.993 125.667 182.07 125.667Z" fill="#B8C5D0"/>
<path d="M177.059 135.693H80.1777C79.2552 135.693 78.5073 136.442 78.5073 137.364V139.036C78.5073 139.959 79.2552 140.707 80.1777 140.707H177.059C177.982 140.707 178.73 139.959 178.73 139.036V137.364C178.73 136.442 177.982 135.693 177.059 135.693Z" fill="#B8C5D0"/>
<path d="M173.718 145.72H80.1777C79.2552 145.72 78.5073 146.468 78.5073 147.391V149.062C78.5073 149.985 79.2552 150.733 80.1777 150.733H173.718C174.641 150.733 175.389 149.985 175.389 149.062V147.391C175.389 146.468 174.641 145.72 173.718 145.72Z" fill="#B8C5D0"/>
<path d="M153.674 155.747H80.1777C79.2552 155.747 78.5073 156.495 78.5073 157.418V159.089C78.5073 160.012 79.2552 160.76 80.1777 160.76H153.674C154.597 160.76 155.344 160.012 155.344 159.089V157.418C155.344 156.495 154.597 155.747 153.674 155.747Z" fill="#B8C5D0"/>
<path d="M61.8037 167.444H16.7037C13.0136 167.444 10.0222 170.437 10.0222 174.129V217.578C10.0222 221.269 13.0136 224.262 16.7037 224.262H61.8037C65.4938 224.262 68.4852 221.269 68.4852 217.578V174.129C68.4852 170.437 65.4938 167.444 61.8037 167.444Z" fill="#B8C5D0"/>
<path fill-rule="evenodd" clip-rule="evenodd" d="M40.0888 213.885C47.4685 213.885 53.4518 217.26 53.4518 221.421C53.4518 225.582 47.4685 223.928 40.0888 223.928C32.7091 223.928 26.7258 225.582 26.7258 221.421C26.7258 217.26 32.7091 213.885 40.0888 213.885ZM40.0888 189.169C46.1955 189.251 51.0873 194.256 51.0326 200.365C50.9779 206.475 45.9972 211.391 39.8902 211.363C33.783 211.336 28.8469 206.375 28.8472 200.265C28.8666 197.302 30.0621 194.468 32.1704 192.387C34.2787 190.307 37.1271 189.149 40.0888 189.169Z" fill="#1D242B"/>
<path d="M163.696 170.787H80.1777C79.2552 170.787 78.5073 171.535 78.5073 172.458V174.129C78.5073 175.052 79.2552 175.8 80.1777 175.8H163.696C164.619 175.8 165.367 175.052 165.367 174.129V172.458C165.367 171.535 164.619 170.787 163.696 170.787Z" fill="#1D242B"/>
<path d="M130.289 185.827H80.1777C79.2552 185.827 78.5073 186.575 78.5073 187.498V189.169C78.5073 190.092 79.2552 190.84 80.1777 190.84H130.289C131.211 190.84 131.959 190.092 131.959 189.169V187.498C131.959 186.575 131.211 185.827 130.289 185.827Z" fill="#B8C5D0"/>
<path d="M168.707 195.853H80.1777C79.2552 195.853 78.5073 196.601 78.5073 197.524V199.196C78.5073 200.118 79.2552 200.867 80.1777 200.867H168.707C169.63 200.867 170.378 200.118 170.378 199.196V197.524C170.378 196.601 169.63 195.853 168.707 195.853Z" fill="#B8C5D0"/>
<path d="M175.389 205.88H80.1777C79.2552 205.88 78.5073 206.628 78.5073 207.551V209.222C78.5073 210.145 79.2552 210.893 80.1777 210.893H175.389C176.311 210.893 177.059 210.145 177.059 209.222V207.551C177.059 206.628 176.311 205.88 175.389 205.88Z" fill="#B8C5D0"/>
<path d="M145.322 215.907H80.1777C79.2552 215.907 78.5073 216.655 78.5073 217.578V219.249C78.5073 220.172 79.2552 220.92 80.1777 220.92H145.322C146.245 220.92 146.992 220.172 146.992 219.249V217.578C146.992 216.655 146.245 215.907 145.322 215.907Z" fill="#B8C5D0"/>
</g>
<defs>
<clipPath id="clip0_30_307">
<rect width="200.444" height="250.667" fill="white" transform="translate(0 0.333252)"/>
</clipPath>
</defs>
</svg>
