<svg width="49" height="49" viewBox="0 0 49 49" fill="none" xmlns="http://www.w3.org/2000/svg">
<rect x="0.888916" y="0.222168" width="48" height="48" rx="24" fill="#C7EEFF"/>
<path d="M18.1624 28.7222V24.2222C18.1624 22.432 18.9068 20.7151 20.2321 19.4492C21.5573 18.1833 23.3546 17.4722 25.2288 17.4722C27.1029 17.4722 28.9003 18.1833 30.2255 19.4492C31.5507 20.7151 32.2952 22.432 32.2952 24.2222V28.7222" stroke="black" stroke-width="1.33333" stroke-linecap="round" stroke-linejoin="round"/>
<path d="M32.2952 29.4722C32.2952 29.87 32.1297 30.2515 31.8352 30.5328C31.5407 30.8141 31.1413 30.9722 30.7249 30.9722H29.9397C29.5232 30.9722 29.1238 30.8141 28.8293 30.5328C28.5348 30.2515 28.3694 29.87 28.3694 29.4722V27.2222C28.3694 26.8243 28.5348 26.4428 28.8293 26.1615C29.1238 25.8802 29.5232 25.7222 29.9397 25.7222H32.2952V29.4722ZM18.1624 29.4722C18.1624 29.87 18.3278 30.2515 18.6223 30.5328C18.9168 30.8141 19.3162 30.9722 19.7327 30.9722H20.5178C20.9343 30.9722 21.3337 30.8141 21.6282 30.5328C21.9227 30.2515 22.0881 29.87 22.0881 29.4722V27.2222C22.0881 26.8243 21.9227 26.4428 21.6282 26.1615C21.3337 25.8802 20.9343 25.7222 20.5178 25.7222H18.1624V29.4722Z" stroke="black" stroke-width="1.33333" stroke-linecap="round" stroke-linejoin="round"/>
</svg>
