<svg width="49" height="49" viewBox="0 0 49 49" fill="none" xmlns="http://www.w3.org/2000/svg">
<rect x="0.777832" y="0.222168" width="48" height="48" rx="24" fill="#C7EEFF"/>
<g clip-path="url(#clip0_30_274)">
<path d="M25.1177 15.9722L18.0513 18.9722V23.4722C18.0513 27.6347 21.0663 31.5272 25.1177 32.4722C29.1691 31.5272 32.1841 27.6347 32.1841 23.4722V18.9722L25.1177 15.9722ZM30.6138 23.4722C30.6138 26.8622 28.274 29.9897 25.1177 30.9197C21.9613 29.9897 19.6216 26.8622 19.6216 23.4722V19.9472L25.1177 17.6147L30.6138 19.9472V23.4722ZM21.5138 23.9147L20.4067 24.9722L23.5474 27.9722L29.8286 21.9722L28.7215 20.9072L23.5474 25.8497L21.5138 23.9147Z" fill="black"/>
</g>
<defs>
<clipPath id="clip0_30_274">
<rect x="15.6958" y="15.2222" width="18.8438" height="18" fill="white"/>
</clipPath>
</defs>
</svg>
